#
#
#

mtllib soap.mtl


#
#  Mesh
#
g  Mesh

v 0.000000 1.000000 2.012178
v 0.194856 0.951057 0.012178
v 0.000000 1.000000 0.012178
v 0.194856 0.951057 2.012178
v 0.370638 0.809017 0.012178
v 0.370638 0.809017 2.012178
v 0.510140 0.587785 0.012178
v 0.510140 0.587785 2.012178
v 0.599705 0.309017 0.012178
v 0.599705 0.309017 2.012178
v 0.630567 -0.000000 0.012178
v 0.630567 -0.000000 2.012178
v 0.599705 -0.309017 0.012178
v 0.599705 -0.309017 2.012178
v 0.510140 -0.587785 0.012178
v 0.510140 -0.587785 2.012178
v 0.370638 -0.809017 0.012178
v 0.370638 -0.809017 2.012178
v 0.194856 -0.951056 0.012178
v 0.194856 -0.951056 2.012178
v 0.000000 -1.000000 0.012178
v 0.000000 -1.000000 2.012178
v -0.194856 -0.951057 0.012178
v -0.194856 -0.951057 2.012178
v -0.370638 -0.809017 0.012178
v -0.370638 -0.809017 2.012178
v -0.510140 -0.587785 0.012178
v -0.510140 -0.587785 2.012178
v -0.599705 -0.309017 0.012178
v -0.599705 -0.309017 2.012178
v -0.630567 -0.000000 0.012178
v -0.630567 -0.000000 2.012178
v -0.599705 0.309017 0.012178
v -0.599705 0.309017 2.012178
v -0.510140 0.587785 0.012178
v -0.510140 0.587785 2.012178
v -0.370638 0.809017 0.012178
v -0.370638 0.809017 2.012178
v -0.194856 0.951057 0.012178
v -0.194856 0.951057 2.012178
v -0.005149 0.106681 3.213374
v 0.057556 0.086307 2.973330
v -0.005149 0.106681 2.973330
v 0.057556 0.086307 3.213374
v 0.096310 0.032966 2.973330
v 0.096310 0.032966 3.213374
v 0.096310 -0.032966 2.973330
v 0.096310 -0.032966 3.213374
v 0.057556 -0.086307 2.973330
v 0.057556 -0.086307 3.213374
v -0.005149 -0.106681 2.973330
v -0.005149 -0.106681 3.213374
v -0.067854 -0.086307 2.973330
v -0.067854 -0.086307 3.213374
v -0.106608 -0.032966 2.973330
v -0.106608 -0.032966 3.213374
v -0.106608 0.032966 2.973330
v -0.106608 0.032966 3.213374
v -0.067854 0.086307 2.973330
v 0.096310 -0.032966 1.001573
v -0.106608 -0.032966 1.001573
v -0.067854 0.086307 1.001573
v -0.005149 0.106681 2.804950
v -0.067854 0.086307 2.804950
v -1.146308 0.032966 3.053824
v -1.254355 0.074046 3.017005
v -1.400711 0.032966 3.026072
v -1.146308 -0.032966 3.053824
v -1.254355 -0.074046 3.017005
v -1.036093 -0.074046 3.040815
v -1.146308 0.032966 2.885443
v -1.400711 -0.032966 2.857691
v -1.400711 0.032966 2.857691
v -0.067854 -0.086307 2.804950
v -0.005149 -0.106681 2.804950
v 0.057556 -0.086307 2.804950
v 0.096310 -0.032966 2.804950
v 0.096310 0.032966 2.804950
v 0.057556 0.086307 2.804950
v 0.057556 0.086307 1.001573
v -0.005149 0.106681 1.001573
v 0.096310 0.032966 1.001573
v 0.057556 -0.086307 1.001573
v -0.005149 -0.106681 1.001573
v -0.067854 -0.086307 1.001573
v -0.106608 -0.032966 2.804950
v -0.106608 0.032966 1.001573
v -0.106608 0.032966 2.804950
v -1.254355 0.074046 2.872545
v -1.400711 -0.032966 3.026072
v -1.254355 -0.074046 2.872545
v -1.036093 0.074046 2.896355
v -1.146308 -0.032966 2.885443
v -1.036093 -0.074046 2.896355
v -1.036093 0.074046 3.040815
v -0.516010 0.074046 2.891955
v -0.516010 0.074046 3.036415
v -0.540107 -0.032966 3.048695
v -0.516010 -0.074046 2.891955
v -0.540107 -0.032966 2.880314
v -0.540107 0.032966 2.880314
v -0.516010 -0.074046 3.036415
v -0.540107 0.032966 3.048695
v -0.805261 0.074046 2.899237
v -0.805261 0.074046 3.043697
v -0.877254 0.032966 3.057183
v -0.877254 -0.032966 3.057183
v -0.805261 -0.074046 2.899237
v -0.877254 -0.032966 2.888802
v -0.877254 0.032966 2.888802
v -0.805261 -0.074046 3.043697
v -0.067854 0.086307 3.213374
vn 0.243594 0.969877 0.000000
vn 0.628505 0.777806 0.000000
vn 0.845874 0.533383 0.000000
vn 0.952067 0.305889 0.000000
vn 0.995047 0.099405 0.000000
vn 0.995047 -0.099405 -0.000000
vn 0.952067 -0.305889 -0.000000
vn 0.845874 -0.533383 -0.000000
vn 0.628505 -0.777806 -0.000000
vn 0.243594 -0.969877 -0.000000
vn -0.243594 -0.969877 -0.000000
vn -0.628505 -0.777806 -0.000000
vn -0.845874 -0.533383 -0.000000
vn -0.952067 -0.305889 -0.000000
vn -0.995047 -0.099405 -0.000000
vn -0.995047 0.099405 0.000000
vn -0.952067 0.305889 0.000000
vn -0.845874 0.533383 0.000000
vn 0.000000 -0.000000 1.000000
vn -0.628505 0.777806 0.000000
vn -0.243594 0.969877 0.000000
vn 0.000000 0.000000 -1.000000
vn 0.308989 0.951066 0.000000
vn 0.809004 0.587803 0.000000
vn 1.000000 0.000000 0.000000
vn 0.809004 -0.587803 -0.000000
vn 0.308989 -0.951066 -0.000000
vn -0.308989 -0.951066 -0.000000
vn -0.809004 -0.587803 -0.000000
vn -1.000000 -0.000000 0.000000
vn -0.809004 0.587803 0.000000
vn -0.308989 0.951066 0.000000
vn -0.092798 0.518087 0.850279
vn -0.092798 -0.518087 0.850279
vn 0.108401 0.000000 -0.994107
vn -0.270201 0.962804 0.000000
vn -0.270201 -0.962804 -0.000000
vn 0.108405 -0.026901 -0.993743
vn 0.108405 0.026901 -0.993743
vn 0.000000 -1.000000 -0.000000
vn -0.108401 -0.000000 0.994107
vn 0.000000 1.000000 0.000000
vn -0.027301 0.999627 0.000000
vn 0.171303 -0.000000 0.985218
vn -0.027301 -0.999627 -0.000000
vn -0.160099 -0.354898 -0.921095
vn -0.192401 0.139801 -0.971307
vn -0.171303 0.000000 -0.985218
vn 0.141402 0.102701 0.984611
vn 0.168098 0.190498 0.967189
vn -0.012500 -0.000000 0.999922
vn 0.012200 -0.226106 -0.974026
vn 0.012200 0.226106 -0.974026
vn 0.012500 0.000000 -0.999922
vn -0.011800 -0.330510 0.943729
vn -0.011800 0.330510 0.943729
vn 0.024201 0.273306 0.961623
vn 0.024201 -0.273306 0.961623
vn -0.025200 0.000000 -0.999682
vn -0.024101 0.285613 -0.958042
vn -0.024101 -0.285613 -0.958042
vn 0.025200 -0.000000 0.999682
vn -0.192401 -0.139801 -0.971307
vn -0.160099 0.354898 -0.921095
vn 0.168098 -0.190498 0.967189
vn 0.141402 -0.102701 0.984611
vt 0.654301 0.976390
vt 0.622074 0.654121
vt 0.654301 0.654121
vt 0.622074 0.976390
vt 0.589847 0.654121
vt 0.589847 0.976390
vt 0.557620 0.654121
vt 0.557620 0.976390
vt 0.525393 0.654121
vt 0.525393 0.976390
vt 0.493166 0.654121
vt 0.493166 0.976390
vt 0.460939 0.654121
vt 0.460939 0.976390
vt 0.428712 0.654121
vt 0.428712 0.976390
vt 0.396485 0.654121
vt 0.396485 0.976390
vt 0.364258 0.654121
vt 0.364258 0.976390
vt 0.332031 0.654121
vt 0.332031 0.976390
vt 0.299804 0.654121
vt 0.299804 0.976390
vt 0.267577 0.654121
vt 0.267577 0.976390
vt 0.235350 0.654121
vt 0.235350 0.976390
vt 0.203123 0.654121
vt 0.203123 0.976390
vt 0.170896 0.654121
vt 0.170896 0.976390
vt 0.138669 0.654121
vt 0.138669 0.976390
vt 0.106443 0.654121
vt 0.106443 0.976390
vt 0.074216 0.654121
vt 0.318015 0.540788
vt 0.296043 0.583910
vt 0.023778 0.540788
vt 0.074216 0.976390
vt 0.041989 0.654121
vt 0.041989 0.976390
vt 0.009762 0.654121
vt 0.368020 0.583910
vt 0.402242 0.618133
vt 0.618312 0.583910
vt 0.261821 0.618133
vt 0.218698 0.640105
vt 0.123095 0.640105
vt 0.170897 0.647676
vt 0.079972 0.618133
vt 0.045750 0.583910
vt 0.016207 0.492986
vt 0.023778 0.445185
vt 0.325586 0.492986
vt 0.045750 0.402062
vt 0.318015 0.445185
vt 0.079972 0.367840
vt 0.296043 0.402062
vt 0.123095 0.345868
vt 0.261821 0.367840
vt 0.170896 0.338297
vt 0.218698 0.345868
vt 0.009762 0.976390
vt 0.445364 0.640105
vt 0.493166 0.647676
vt 0.540968 0.640105
vt 0.584090 0.618133
vt 0.640284 0.540788
vt 0.346048 0.540788
vt 0.647855 0.492986
vt 0.338477 0.492986
vt 0.640284 0.445185
vt 0.618312 0.402062
vt 0.346048 0.445185
vt 0.584090 0.367840
vt 0.402242 0.367840
vt 0.540968 0.345868
vt 0.445364 0.345868
vt 0.493166 0.338297
vt 0.368020 0.402062
vt 0.618803 0.366055
vt 0.640051 0.387302
vt 0.640051 0.366055
vt 0.970745 0.014113
vt 0.991993 0.035360
vt 0.991993 0.014113
vt 0.948749 0.344058
vt 0.969997 0.365306
vt 0.969997 0.344058
vt 0.926752 0.344058
vt 0.948000 0.365306
vt 0.948000 0.344058
vt 0.948749 0.322062
vt 0.969997 0.343310
vt 0.969997 0.322062
vt 0.904756 0.344058
vt 0.926004 0.365306
vt 0.926004 0.344058
vt 0.882760 0.344058
vt 0.904007 0.365306
vt 0.904007 0.344058
vt 0.948749 0.256073
vt 0.969997 0.277320
vt 0.969997 0.256073
vt 0.618803 0.132238
vt 0.662422 0.102098
vt 0.689379 0.181005
vt 0.948749 0.234076
vt 0.969997 0.255324
vt 0.969997 0.234076
vt 0.969997 0.212080
vt 0.948749 0.233328
vt 0.969997 0.233328
vt 0.635464 0.093019
vt 0.662422 0.014113
vt 0.706040 0.044252
vt 0.948749 0.190084
vt 0.969997 0.211331
vt 0.969997 0.190084
vt 0.794026 0.014113
vt 0.750781 0.101349
vt 0.794026 0.101349
vt 0.794026 0.102098
vt 0.706789 0.145342
vt 0.794026 0.145342
vt 0.882011 0.014113
vt 0.860763 0.101349
vt 0.882011 0.101349
vt 0.948749 0.168087
vt 0.969997 0.189335
vt 0.969997 0.168087
vt 0.948749 0.146091
vt 0.969997 0.167339
vt 0.969997 0.146091
vt 0.948749 0.124094
vt 0.969997 0.145342
vt 0.969997 0.124094
vt 0.948749 0.102098
vt 0.969997 0.123346
vt 0.969997 0.102098
vt 0.926752 0.322062
vt 0.948000 0.343310
vt 0.948000 0.322062
vt 0.904756 0.322062
vt 0.926004 0.343310
vt 0.926004 0.322062
vt 0.882011 0.299317
vt 0.794774 0.278069
vt 0.794774 0.299317
vt 0.860015 0.190084
vt 0.838767 0.277320
vt 0.860015 0.277320
vt 0.706040 0.321313
vt 0.618803 0.300066
vt 0.618803 0.321313
vt 0.882011 0.190084
vt 0.860763 0.277320
vt 0.882011 0.277320
vt 0.706789 0.321313
vt 0.794026 0.300066
vt 0.706789 0.300066
vt 0.904007 0.014113
vt 0.882760 0.101349
vt 0.904007 0.101349
vt 0.882011 0.321313
vt 0.794774 0.300066
vt 0.794774 0.321313
vt 0.904007 0.102098
vt 0.882760 0.189335
vt 0.904007 0.189335
vt 0.706040 0.343310
vt 0.618803 0.322062
vt 0.618803 0.343310
vt 0.904007 0.190084
vt 0.882760 0.277320
vt 0.904007 0.277320
vt 0.882011 0.322062
vt 0.794774 0.343310
vt 0.882011 0.343310
vt 0.882760 0.322062
vt 0.904007 0.343310
vt 0.904007 0.322062
vt 0.926004 0.102098
vt 0.904756 0.189335
vt 0.926004 0.189335
vt 0.706040 0.190084
vt 0.618803 0.233328
vt 0.706040 0.233328
vt 0.838018 0.102098
vt 0.794774 0.189335
vt 0.838018 0.189335
vt 0.706040 0.365306
vt 0.618803 0.344058
vt 0.618803 0.365306
vt 0.926752 0.014113
vt 0.948000 0.101349
vt 0.948000 0.014113
vt 0.794026 0.344058
vt 0.706789 0.365306
vt 0.794026 0.365306
vt 0.948000 0.102098
vt 0.926752 0.189335
vt 0.948000 0.189335
vt 0.882011 0.344058
vt 0.794774 0.365306
vt 0.882011 0.365306
vt 0.926752 0.190084
vt 0.948000 0.277320
vt 0.948000 0.190084
vt 0.969997 0.299317
vt 0.882760 0.278069
vt 0.882760 0.299317
vt 0.948749 0.014113
vt 0.969997 0.101349
vt 0.969997 0.014113
vt 0.969997 0.300066
vt 0.882760 0.321313
vt 0.969997 0.321313
vt 0.904756 0.014113
vt 0.926004 0.101349
vt 0.926004 0.014113
vt 0.794026 0.299317
vt 0.706789 0.278069
vt 0.706789 0.299317
vt 0.816771 0.190084
vt 0.838018 0.277320
vt 0.838018 0.190084
vt 0.706040 0.278069
vt 0.618803 0.299317
vt 0.706040 0.299317
vt 0.926004 0.190084
vt 0.904756 0.277320
vt 0.926004 0.277320
vt 0.794026 0.189335
vt 0.706789 0.146091
vt 0.706789 0.189335
vt 0.706789 0.014113
vt 0.750033 0.101349
vt 0.750033 0.014113
vt 0.794026 0.255324
vt 0.706789 0.234076
vt 0.706789 0.255324
vt 0.794774 0.014113
vt 0.838018 0.101349
vt 0.838018 0.014113
vt 0.794026 0.233328
vt 0.706789 0.190084
vt 0.706789 0.233328
vt 0.860015 0.014113
vt 0.838767 0.101349
vt 0.860015 0.101349
vt 0.706040 0.234076
vt 0.618803 0.255324
vt 0.706040 0.255324
vt 0.860015 0.102098
vt 0.838767 0.189335
vt 0.860015 0.189335
vt 0.706040 0.256073
vt 0.618803 0.277320
vt 0.706040 0.277320
vt 0.882011 0.102098
vt 0.860763 0.189335
vt 0.882011 0.189335
vt 0.794026 0.256073
vt 0.706789 0.277320
vt 0.794026 0.277320
vt 0.794774 0.190084
vt 0.816022 0.277320
vt 0.816022 0.190084
vt 0.794026 0.343310
vt 0.706789 0.322062
vt 0.706789 0.343310
vt 0.618803 0.387302
vt 0.970745 0.035360
vt 0.948749 0.365306
vt 0.926752 0.365306
vt 0.948749 0.343310
vt 0.904756 0.365306
vt 0.882760 0.365306
vt 0.948749 0.277320
vt 0.635464 0.181005
vt 0.618803 0.159195
vt 0.635464 0.110428
vt 0.689379 0.110428
vt 0.706040 0.132238
vt 0.706040 0.159195
vt 0.662422 0.189335
vt 0.948749 0.255324
vt 0.948749 0.212080
vt 0.706040 0.071210
vt 0.689379 0.093019
vt 0.662422 0.101349
vt 0.618803 0.071210
vt 0.618803 0.044252
vt 0.635464 0.022443
vt 0.689379 0.022443
vt 0.948749 0.211331
vt 0.750781 0.014113
vt 0.706789 0.102098
vt 0.860763 0.014113
vt 0.948749 0.189335
vt 0.948749 0.167339
vt 0.948749 0.145342
vt 0.948749 0.123346
vt 0.926752 0.343310
vt 0.904756 0.343310
vt 0.882011 0.278069
vt 0.838767 0.190084
vt 0.706040 0.300066
vt 0.860763 0.190084
vt 0.794026 0.321313
vt 0.882760 0.014113
vt 0.882011 0.300066
vt 0.882760 0.102098
vt 0.706040 0.322062
vt 0.882760 0.190084
vt 0.794774 0.322062
vt 0.882760 0.343310
vt 0.904756 0.102098
vt 0.618803 0.190084
vt 0.794774 0.102098
vt 0.706040 0.344058
vt 0.926752 0.101349
vt 0.706789 0.344058
vt 0.926752 0.102098
vt 0.794774 0.344058
vt 0.926752 0.277320
vt 0.969997 0.278069
vt 0.948749 0.101349
vt 0.882760 0.300066
vt 0.904756 0.101349
vt 0.794026 0.278069
vt 0.816771 0.277320
vt 0.618803 0.278069
vt 0.904756 0.190084
vt 0.794026 0.146091
vt 0.706789 0.101349
vt 0.794026 0.234076
vt 0.794774 0.101349
vt 0.794026 0.190084
vt 0.838767 0.014113
vt 0.618803 0.234076
vt 0.838767 0.102098
vt 0.618803 0.256073
vt 0.860763 0.102098
vt 0.706789 0.256073
vt 0.794774 0.277320
vt 0.794026 0.322062
f 1/1/1 2/2/1 3/3/1
f 4/4/2 5/5/2 2/2/2
f 6/6/3 7/7/3 5/5/3
f 8/8/4 9/9/4 7/7/4
f 10/10/5 11/11/5 9/9/5
f 12/12/6 13/13/6 11/11/6
f 14/14/7 15/15/7 13/13/7
f 16/16/8 17/17/8 15/15/8
f 18/18/9 19/19/9 17/17/9
f 20/20/10 21/21/10 19/19/10
f 22/22/11 23/23/11 21/21/11
f 24/24/12 25/25/12 23/23/12
f 26/26/13 27/27/13 25/25/13
f 28/28/14 29/29/14 27/27/14
f 30/30/15 31/31/15 29/29/15
f 32/32/16 33/33/16 31/31/16
f 34/34/17 35/35/17 33/33/17
f 36/36/18 37/37/18 35/35/18
f 10/38/19 8/39/19 34/40/19
f 38/41/20 39/42/20 37/37/20
f 40/43/21 3/44/21 39/42/21
f 35/45/22 37/46/22 7/47/22
f 1/1/1 4/4/1 2/2/1
f 4/4/2 6/6/2 5/5/2
f 6/6/3 8/8/3 7/7/3
f 8/8/4 10/10/4 9/9/4
f 10/10/5 12/12/5 11/11/5
f 12/12/6 14/14/6 13/13/6
f 14/14/7 16/16/7 15/15/7
f 16/16/8 18/18/8 17/17/8
f 18/18/9 20/20/9 19/19/9
f 20/20/10 22/22/10 21/21/10
f 22/22/11 24/24/11 23/23/11
f 24/24/12 26/26/12 25/25/12
f 26/26/13 28/28/13 27/27/13
f 28/28/14 30/30/14 29/29/14
f 30/30/15 32/32/15 31/31/15
f 32/32/16 34/34/16 33/33/16
f 34/34/17 36/36/17 35/35/17
f 36/36/18 38/41/18 37/37/18
f 6/48/19 4/49/19 40/50/19
f 4/49/19 1/51/19 40/50/19
f 40/50/19 38/52/19 6/48/19
f 38/52/19 36/53/19 6/48/19
f 36/53/19 34/40/19 8/39/19
f 6/48/19 36/53/19 8/39/19
f 34/40/19 32/54/19 10/38/19
f 32/54/19 30/55/19 12/56/19
f 10/38/19 32/54/19 12/56/19
f 30/55/19 28/57/19 14/58/19
f 28/57/19 26/59/19 16/60/19
f 14/58/19 28/57/19 16/60/19
f 26/59/19 24/61/19 18/62/19
f 24/61/19 22/63/19 20/64/19
f 18/62/19 24/61/19 20/64/19
f 18/62/19 16/60/19 26/59/19
f 14/58/19 12/56/19 30/55/19
f 38/41/20 40/43/20 39/42/20
f 40/43/21 1/65/21 3/44/21
f 39/66/22 3/67/22 2/68/22
f 2/68/22 5/69/22 39/66/22
f 5/69/22 7/47/22 37/46/22
f 39/66/22 5/69/22 37/46/22
f 7/47/22 9/70/22 33/71/22
f 9/70/22 11/72/22 31/73/22
f 11/72/22 13/74/22 31/73/22
f 13/74/22 15/75/22 29/76/22
f 31/73/22 13/74/22 29/76/22
f 15/75/22 17/77/22 25/78/22
f 17/77/22 19/79/22 23/80/22
f 19/79/22 21/81/22 23/80/22
f 23/80/22 25/78/22 17/77/22
f 25/78/22 27/82/22 15/75/22
f 27/82/22 29/76/22 15/75/22
f 31/73/22 33/71/22 9/70/22
f 33/71/22 35/45/22 7/47/22
f 41/83/23 42/84/23 43/85/23
f 44/86/24 45/87/24 42/88/24
f 46/89/25 47/90/25 45/91/25
f 48/92/26 49/93/26 47/94/26
f 50/95/27 51/96/27 49/97/27
f 52/98/28 53/99/28 51/100/28
f 54/101/29 55/102/29 53/103/29
f 56/104/30 57/105/30 55/106/30
f 41/107/19 58/108/19 50/109/19
f 58/110/31 59/111/31 57/112/31
f 59/113/32 41/114/32 43/115/32
f 60/116/22 61/117/22 62/118/22
f 59/119/32 63/120/32 64/121/32
f 65/122/33 66/123/33 67/124/33
f 68/125/34 69/126/34 70/127/34
f 71/128/35 72/129/35 73/130/35
f 51/131/28 74/132/28 75/133/28
f 49/134/27 75/135/27 76/136/27
f 47/137/26 76/138/26 77/139/26
f 45/140/25 77/141/25 78/142/25
f 42/143/24 78/144/24 79/145/24
f 43/146/23 79/147/23 63/148/23
f 63/149/23 80/150/23 81/151/23
f 79/152/24 82/153/24 80/154/24
f 78/155/25 60/156/25 82/157/25
f 77/158/26 83/159/26 60/160/26
f 83/161/27 75/162/27 84/163/27
f 75/164/28 85/165/28 84/166/28
f 74/167/29 61/168/29 85/169/29
f 86/170/30 87/171/30 61/172/30
f 88/173/31 62/174/31 87/175/31
f 64/176/32 81/177/32 62/178/32
f 67/179/36 89/180/36 73/181/36
f 90/182/30 73/183/30 72/184/30
f 91/185/37 90/186/37 72/187/37
f 71/188/38 89/189/38 92/190/38
f 93/191/39 91/192/39 72/193/39
f 94/194/40 69/195/40 91/196/40
f 65/197/41 90/198/41 68/199/41
f 92/200/42 66/201/42 95/202/42
f 59/203/43 96/204/43 97/205/43
f 57/206/44 98/207/44 55/208/44
f 53/209/45 99/210/45 74/211/45
f 86/212/46 99/213/46 100/214/46
f 88/215/47 96/216/47 64/217/47
f 86/218/48 101/219/48 88/220/48
f 55/221/49 102/222/49 53/223/49
f 57/224/50 97/225/50 103/226/50
f 104/227/42 95/228/42 105/229/42
f 106/230/51 68/231/51 107/232/51
f 108/233/40 70/234/40 94/235/40
f 109/236/52 94/237/52 93/238/52
f 110/239/53 92/240/53 104/241/53
f 110/242/54 93/243/54 71/244/54
f 107/245/55 70/246/55 111/247/55
f 106/248/56 95/249/56 65/250/56
f 103/251/57 105/252/57 106/253/57
f 98/254/58 111/255/58 102/256/58
f 101/257/59 109/258/59 110/259/59
f 101/260/60 104/261/60 96/262/60
f 100/263/61 108/264/61 109/265/61
f 102/266/40 108/267/40 99/268/40
f 103/269/62 107/270/62 98/271/62
f 97/272/42 104/273/42 105/274/42
f 41/83/23 44/275/23 42/84/23
f 44/86/24 46/276/24 45/87/24
f 46/89/25 48/277/25 47/90/25
f 48/92/26 50/278/26 49/93/26
f 50/95/27 52/279/27 51/96/27
f 52/98/28 54/280/28 53/99/28
f 54/101/29 56/281/29 55/102/29
f 56/104/30 58/282/30 57/105/30
f 46/283/19 44/284/19 41/107/19
f 41/107/19 112/285/19 58/108/19
f 58/108/19 56/286/19 54/287/19
f 54/287/19 52/288/19 58/108/19
f 52/288/19 50/109/19 58/108/19
f 50/109/19 48/289/19 46/283/19
f 46/283/19 41/107/19 50/109/19
f 58/110/31 112/290/31 59/111/31
f 59/113/32 112/291/32 41/114/32
f 62/118/22 81/292/22 80/293/22
f 80/293/22 82/294/22 62/118/22
f 82/294/22 60/116/22 62/118/22
f 60/116/22 83/295/22 84/296/22
f 84/296/22 85/297/22 61/117/22
f 61/117/22 87/298/22 62/118/22
f 60/116/22 84/296/22 61/117/22
f 59/119/32 43/299/32 63/120/32
f 65/122/33 95/300/33 66/123/33
f 68/125/34 90/301/34 69/126/34
f 71/128/35 93/302/35 72/129/35
f 51/131/28 53/303/28 74/132/28
f 49/134/27 51/304/27 75/135/27
f 47/137/26 49/305/26 76/138/26
f 45/140/25 47/306/25 77/141/25
f 42/143/24 45/307/24 78/144/24
f 43/146/23 42/308/23 79/147/23
f 63/149/23 79/309/23 80/150/23
f 79/152/24 78/310/24 82/153/24
f 78/155/25 77/311/25 60/156/25
f 77/158/26 76/312/26 83/159/26
f 83/161/27 76/313/27 75/162/27
f 75/164/28 74/314/28 85/165/28
f 74/167/29 86/315/29 61/168/29
f 86/170/30 88/316/30 87/171/30
f 88/173/31 64/317/31 62/174/31
f 64/176/32 63/318/32 81/177/32
f 67/179/36 66/319/36 89/180/36
f 90/182/30 67/320/30 73/183/30
f 91/185/37 69/321/37 90/186/37
f 71/188/38 73/322/38 89/189/38
f 93/191/39 94/323/39 91/192/39
f 94/194/40 70/324/40 69/195/40
f 65/197/41 67/325/41 90/198/41
f 92/200/42 89/326/42 66/201/42
f 59/203/43 64/327/43 96/204/43
f 57/206/44 103/328/44 98/207/44
f 53/209/45 102/329/45 99/210/45
f 86/212/63 74/330/63 99/213/63
f 88/215/64 101/331/64 96/216/64
f 86/218/48 100/332/48 101/219/48
f 55/221/65 98/333/65 102/222/65
f 57/224/66 59/334/66 97/225/66
f 104/227/42 92/335/42 95/228/42
f 106/230/51 65/336/51 68/231/51
f 108/233/40 111/337/40 70/234/40
f 109/236/52 108/338/52 94/237/52
f 110/239/53 71/339/53 92/240/53
f 110/242/54 109/340/54 93/243/54
f 107/245/55 68/341/55 70/246/55
f 106/248/56 105/342/56 95/249/56
f 103/251/57 97/343/57 105/252/57
f 98/254/58 107/344/58 111/255/58
f 101/257/59 100/345/59 109/258/59
f 101/260/60 110/346/60 104/261/60
f 100/263/61 99/347/61 108/264/61
f 102/266/40 111/348/40 108/267/40
f 103/269/62 106/349/62 107/270/62
f 97/272/42 96/350/42 104/273/42
